<?xml version="1.0" encoding="utf-8"?>
<!-- Generator: Adobe Illustrator 13.0.0, SVG Export Plug-In . SVG Version: 6.00 Build 14948)  -->
<!DOCTYPE svg PUBLIC "-//W3C//DTD SVG 1.1//EN" "http://www.w3.org/Graphics/SVG/1.1/DTD/svg11.dtd">
<svg version="1.1" id="Layer_1" xmlns="http://www.w3.org/2000/svg" xmlns:xlink="http://www.w3.org/1999/xlink" x="0px" y="0px"
	 width="2000px" height="503.5px" viewBox="0 0 2000 503.5" enable-background="new 0 0 2000 503.5" xml:space="preserve">
<g opacity="0.15">
	<polygon fill="#919191" points="1644.5,-21.75 1744.5,-11.75 1804.5,218.25 	"/>
	<polygon fill="#787878" points="1124.5,-21.75 854.5,198.25 944.5,228.25 	"/>
	<polygon fill="#A2A2A2" points="1434.5,-21.75 1644.5,-21.75 1524.5,158.25 	"/>
	<polygon fill="#ADADAD" points="1434.5,-21.75 1344.5,138.25 1524.5,158.25 	"/>
	<polygon fill="#A2A2A2" points="1124.5,-21.75 1434.5,-21.75 1344.5,138.25 	"/>
	<polyline fill="#ADADAD" points="1084.5,148.25 1124.5,-21.75 1344.5,138.25 	"/>
	<polygon fill="#ADADAD" points="1034.5,268.25 1194.5,58.25 1354.5,288.25 	"/>
	<polygon fill="#BFBFBF" points="1434.5,148.25 1354.5,288.25 1194.5,58.25 	"/>
	<polygon fill="#CECECE" points="1434.5,148.25 1534.5,288.25 1354.5,288.25 	"/>
	<polygon fill="#919191" points="1124.5,-21.75 954.5,198.25 1094.5,158.25 	"/>
	<polygon fill="#ADADAD" points="1644.5,-21.75 1804.5,218.25 1524.5,158.25 	"/>
	<polygon fill="#BFBFBF" points="1634.5,88.25 1434.5,148.25 1534.5,288.25 	"/>
	<polygon fill="#A2A2A2" points="934.5,218.25 1034.5,278.25 1194.5,58.25 	"/>
	<polygon fill="#CECECE" points="1784.5,248.25 1534.5,288.25 1634.5,88.25 	"/>
	<polygon fill="#D4D4D4" points="1044.5,188.25 1344.5,248.25 1244.5,488.25 	"/>
	<polygon fill="#DFDFDF" points="1484.5,518.25 1244.5,488.25 1344.5,248.25 	"/>
	<polygon fill="#D4D4D4" points="1584.5,258.25 1344.5,248.25 1484.5,518.25 	"/>
	<polygon fill="#DFDFDF" points="1744.5,228.25 1484.5,518.25 1584.5,258.25 	"/>
	<polygon fill="#CECECE" points="1824.5,538.25 1744.5,228.25 1484.5,518.25 	"/>
	<polygon fill="#BFBFBF" points="884.5,498.25 1044.5,188.25 1244.5,488.25 	"/>
	<polygon fill="#A2A2A2" points="1634.5,88.25 1904.5,228.25 1784.5,278.25 	"/>
	<polyline fill="#919191" points="884.5,498.25 814.5,178.25 1044.5,188.25 	"/>
	<polygon fill="#787878" points="624.5,508.25 814.5,178.25 884.5,498.25 	"/>
	<polygon fill="#ADADAD" points="1904.5,228.25 1744.5,228.25 1824.5,538.25 	"/>
	<polygon fill="#919191" points="2004.5,528.25 1904.5,228.25 1824.5,538.25 	"/>
	<polygon fill="#919191" points="1629.5,-8.75 1729.5,1.25 1789.5,231.25 	"/>
	<polygon fill="#787878" points="1109.5,-8.75 839.5,211.25 929.5,241.25 	"/>
	<polygon fill="#A2A2A2" points="1419.5,-8.75 1629.5,-8.75 1509.5,171.25 	"/>
	<polygon fill="#ADADAD" points="1419.5,-8.75 1329.5,151.25 1509.5,171.25 	"/>
	<polygon fill="#A2A2A2" points="1109.5,-8.75 1419.5,-8.75 1329.5,151.25 	"/>
	<polyline fill="#ADADAD" points="1069.5,161.25 1109.5,-8.75 1329.5,151.25 	"/>
	<polygon fill="#ADADAD" points="1019.5,281.25 1179.5,71.25 1339.5,301.25 	"/>
	<polygon fill="#BFBFBF" points="1419.5,161.25 1339.5,301.25 1179.5,71.25 	"/>
	<polygon fill="#CECECE" points="1419.5,161.25 1519.5,301.25 1339.5,301.25 	"/>
	<polygon fill="#919191" points="1109.5,-8.75 939.5,211.25 1079.5,171.25 	"/>
	<polygon fill="#ADADAD" points="1629.5,-8.75 1789.5,231.25 1509.5,171.25 	"/>
	<polygon fill="#BFBFBF" points="1619.5,101.25 1419.5,161.25 1519.5,301.25 	"/>
	<polygon fill="#A2A2A2" points="919.5,231.25 1019.5,291.25 1179.5,71.25 	"/>
	<polygon fill="#CECECE" points="1769.5,261.25 1519.5,301.25 1619.5,101.25 	"/>
	<polygon fill="#D4D4D4" points="1029.5,201.25 1329.5,261.25 1229.5,501.25 	"/>
	<polygon fill="#DFDFDF" points="1469.5,531.25 1229.5,501.25 1329.5,261.25 	"/>
	<polygon fill="#D4D4D4" points="1569.5,271.25 1329.5,261.25 1469.5,531.25 	"/>
	<polygon fill="#DFDFDF" points="1729.5,241.25 1469.5,531.25 1569.5,271.25 	"/>
	<polygon fill="#CECECE" points="1809.5,551.25 1729.5,241.25 1469.5,531.25 	"/>
	<polygon fill="#BFBFBF" points="869.5,511.25 1029.5,201.25 1229.5,501.25 	"/>
	<polygon fill="#A2A2A2" points="1619.5,101.25 1889.5,241.25 1769.5,291.25 	"/>
	<polyline fill="#919191" points="869.5,511.25 799.5,191.25 1029.5,201.25 	"/>
	<polygon fill="#787878" points="609.5,521.25 799.5,191.25 869.5,511.25 	"/>
	<polygon fill="#ADADAD" points="1889.5,241.25 1729.5,241.25 1809.5,551.25 	"/>
	<polygon fill="#919191" points="1989.5,541.25 1889.5,241.25 1809.5,551.25 	"/>
</g>
<g opacity="0.15">
	<polygon fill="#919191" points="299.2,-45.115 399.667,-42.599 476.648,182.288 	"/>
	<polygon fill="#787878" points="-219.353,-6.346 -472.199,233.171 -380.212,256.378 	"/>
	<polygon fill="#A2A2A2" points="89.785,-29.458 299.2,-45.115 192.955,143.331 	"/>
	<polygon fill="#ADADAD" points="89.785,-29.458 11.964,136.806 192.955,143.331 	"/>
	<polygon fill="#A2A2A2" points="-219.353,-6.346 89.785,-29.458 11.964,136.806 	"/>
	<polyline fill="#ADADAD" points="-246.566,166.163 -219.353,-6.346 11.964,136.806 	"/>
	<polygon fill="#ADADAD" points="-287.48,289.557 -143.583,68.212 33.12,285.644 	"/>
	<polygon fill="#BFBFBF" points="102.459,140.068 33.12,285.644 -143.583,68.212 	"/>
	<polygon fill="#CECECE" points="102.459,140.068 212.619,272.223 33.12,285.644 	"/>
	<polygon fill="#919191" points="-219.353,-6.346 -372.477,225.716 -235.849,175.39 	"/>
	<polygon fill="#ADADAD" points="299.2,-45.115 476.648,182.288 192.955,143.331 	"/>
	<polygon fill="#BFBFBF" points="297.429,65.324 102.459,140.068 212.619,272.223 	"/>
	<polygon fill="#A2A2A2" points="-390.93,247.151 -286.735,299.529 -143.583,68.212 	"/>
	<polygon fill="#CECECE" points="458.941,213.695 212.619,272.223 297.429,65.324 	"/>
	<polygon fill="#D4D4D4" points="-283.473,209.034 20.166,246.5 -61.663,493.288 	"/>
	<polygon fill="#DFDFDF" points="179.906,505.311 -61.663,493.288 20.166,246.5 	"/>
	<polygon fill="#D4D4D4" points="260.243,238.579 20.166,246.5 179.906,505.311 	"/>
	<polygon fill="#DFDFDF" points="417.561,196.733 179.906,505.311 260.243,238.579 	"/>
	<polygon fill="#CECECE" points="520.451,499.906 417.561,196.733 179.906,505.311 	"/>
	<polygon fill="#BFBFBF" points="-419.915,530.1 -283.473,209.034 -61.663,493.288 	"/>
	<polygon fill="#A2A2A2" points="297.429,65.324 577.116,184.805 461.178,243.611 	"/>
	<polyline fill="#919191" points="-419.915,530.1 -513.578,216.209 -283.473,209.034 	"/>
	<polygon fill="#787878" points="-678.446,559.457 -513.578,216.209 -419.915,530.1 	"/>
	<polygon fill="#ADADAD" points="577.116,184.805 417.561,196.733 520.451,499.906 	"/>
	<polygon fill="#919191" points="699.204,476.514 577.116,184.805 520.451,499.906 	"/>
	<polygon fill="#919191" points="285.211,-31.033 385.679,-28.517 462.66,196.37 	"/>
	<polygon fill="#787878" points="-233.341,7.736 -486.188,247.254 -394.201,270.461 	"/>
	<polygon fill="#A2A2A2" points="75.796,-15.376 285.211,-31.033 178.965,157.413 	"/>
	<polygon fill="#ADADAD" points="75.796,-15.376 -2.025,150.888 178.965,157.413 	"/>
	<polygon fill="#A2A2A2" points="-233.341,7.736 75.796,-15.376 -2.025,150.888 	"/>
	<polyline fill="#ADADAD" points="-260.556,180.245 -233.341,7.736 -2.025,150.888 	"/>
	<polygon fill="#ADADAD" points="-301.47,303.639 -157.572,82.294 19.131,299.726 	"/>
	<polygon fill="#BFBFBF" points="88.47,154.15 19.131,299.726 -157.572,82.294 	"/>
	<polygon fill="#CECECE" points="88.47,154.15 198.63,286.306 19.131,299.726 	"/>
	<polygon fill="#919191" points="-233.341,7.736 -386.466,239.798 -249.838,189.472 	"/>
	<polygon fill="#ADADAD" points="285.211,-31.033 462.66,196.37 178.965,157.413 	"/>
	<polygon fill="#BFBFBF" points="283.44,79.406 88.47,154.15 198.63,286.306 	"/>
	<polygon fill="#A2A2A2" points="-404.919,261.233 -300.724,313.611 -157.572,82.294 	"/>
	<polygon fill="#CECECE" points="444.952,227.778 198.63,286.306 283.44,79.406 	"/>
	<polygon fill="#D4D4D4" points="-297.462,223.116 6.176,260.582 -75.652,507.37 	"/>
	<polygon fill="#DFDFDF" points="165.917,519.393 -75.652,507.37 6.176,260.582 	"/>
	<polygon fill="#D4D4D4" points="246.254,252.661 6.176,260.582 165.917,519.393 	"/>
	<polygon fill="#DFDFDF" points="403.572,210.815 165.917,519.393 246.254,252.661 	"/>
	<polygon fill="#CECECE" points="506.462,513.988 403.572,210.815 165.917,519.393 	"/>
	<polygon fill="#BFBFBF" points="-433.904,544.182 -297.462,223.116 -75.652,507.37 	"/>
	<polygon fill="#A2A2A2" points="283.44,79.406 563.127,198.887 447.188,257.694 	"/>
	<polyline fill="#919191" points="-433.904,544.182 -527.567,230.292 -297.462,223.116 	"/>
	<polygon fill="#787878" points="-692.435,573.539 -527.567,230.292 -433.904,544.182 	"/>
	<polygon fill="#ADADAD" points="563.127,198.887 403.572,210.815 506.462,513.988 	"/>
	<polygon fill="#919191" points="685.215,490.596 563.127,198.887 506.462,513.988 	"/>
</g>
<g opacity="0.15">
	<polygon fill="#919191" points="2097.854,506.63 1997.404,503.482 1921.837,278.116 	"/>
	<polygon fill="#787878" points="2616.64,471.118 2870.985,233.192 2779.146,209.409 	"/>
	<polygon fill="#A2A2A2" points="2307.363,492.288 2097.854,506.63 2205.281,318.854 	"/>
	<polygon fill="#ADADAD" points="2307.363,492.288 2386.227,326.516 2205.281,318.854 	"/>
	<polygon fill="#A2A2A2" points="2616.64,471.118 2307.363,492.288 2386.227,326.516 	"/>
	<polyline fill="#ADADAD" points="2644.937,298.783 2616.64,471.118 2386.227,326.516 	"/>
	<polygon fill="#ADADAD" points="2686.625,175.648 2541.34,396.085 2366.006,177.549 	"/>
	<polygon fill="#BFBFBF" points="2295.754,322.686 2366.006,177.549 2541.34,396.085 	"/>
	<polygon fill="#CECECE" points="2295.754,322.686 2186.426,189.841 2366.006,177.549 	"/>
	<polygon fill="#919191" points="2616.64,471.118 2771.219,240.021 2634.277,289.489 	"/>
	<polygon fill="#ADADAD" points="2097.854,506.63 1921.837,278.116 2205.281,318.854 	"/>
	<polygon fill="#BFBFBF" points="2100.318,396.203 2295.754,322.686 2186.426,189.841 	"/>
	<polygon fill="#A2A2A2" points="2789.806,218.703 2685.941,165.672 2541.34,396.085 	"/>
	<polygon fill="#CECECE" points="1939.741,246.821 2186.426,189.841 2100.318,396.203 	"/>
	<polygon fill="#D4D4D4" points="2682.111,256.145 2378.715,216.772 2462.091,-29.497 	"/>
	<polygon fill="#DFDFDF" points="2220.603,-43.036 2462.091,-29.497 2378.715,216.772 	"/>
	<polygon fill="#D4D4D4" points="2138.592,223.186 2378.715,216.772 2220.603,-43.036 	"/>
	<polygon fill="#DFDFDF" points="1981.014,264.043 2220.603,-43.036 2138.592,223.186 	"/>
	<polygon fill="#CECECE" points="1880.03,-39.771 1981.014,264.043 2220.603,-43.036 	"/>
	<polygon fill="#BFBFBF" points="2820.567,-64.058 2682.111,256.145 2462.091,-29.497 	"/>
	<polygon fill="#A2A2A2" points="2100.318,396.203 1821.388,274.969 1937.693,216.891 	"/>
	<polyline fill="#919191" points="2820.567,-64.058 2912.258,250.414 2682.111,256.145 	"/>
	<polygon fill="#787878" points="3079.277,-91.791 2912.258,250.414 2820.567,-64.058 	"/>
	<polygon fill="#ADADAD" points="1821.388,274.969 1981.014,264.043 1880.03,-39.771 	"/>
	<polygon fill="#919191" points="1701.134,-17.501 1821.388,274.969 1880.03,-39.771 	"/>
	<polygon fill="#919191" points="2111.931,492.636 2011.481,489.488 1935.914,264.123 	"/>
	<polygon fill="#787878" points="2630.717,457.124 2885.063,219.198 2793.224,195.415 	"/>
	<polygon fill="#A2A2A2" points="2321.44,478.294 2111.931,492.636 2219.358,304.86 	"/>
	<polygon fill="#ADADAD" points="2321.44,478.294 2400.304,312.521 2219.358,304.86 	"/>
	<polygon fill="#A2A2A2" points="2630.717,457.124 2321.44,478.294 2400.304,312.521 	"/>
	<polyline fill="#ADADAD" points="2659.014,284.789 2630.717,457.124 2400.304,312.521 	"/>
	<polygon fill="#ADADAD" points="2700.702,161.655 2555.417,382.091 2380.083,163.555 	"/>
	<polygon fill="#BFBFBF" points="2309.831,308.691 2380.083,163.555 2555.417,382.091 	"/>
	<polygon fill="#CECECE" points="2309.831,308.691 2200.504,175.847 2380.083,163.555 	"/>
	<polygon fill="#919191" points="2630.717,457.124 2785.296,226.027 2648.354,275.495 	"/>
	<polygon fill="#ADADAD" points="2111.931,492.636 1935.914,264.123 2219.358,304.86 	"/>
	<polygon fill="#BFBFBF" points="2114.396,382.21 2309.831,308.691 2200.504,175.847 	"/>
	<polygon fill="#A2A2A2" points="2803.883,204.709 2700.02,151.678 2555.417,382.091 	"/>
	<polygon fill="#CECECE" points="1953.818,232.827 2200.504,175.847 2114.396,382.21 	"/>
	<polygon fill="#D4D4D4" points="2696.188,242.15 2392.791,202.778 2476.168,-43.49 	"/>
	<polygon fill="#DFDFDF" points="2234.68,-57.03 2476.168,-43.49 2392.791,202.778 	"/>
	<polygon fill="#D4D4D4" points="2152.669,209.191 2392.791,202.778 2234.68,-57.03 	"/>
	<polygon fill="#DFDFDF" points="1995.091,250.049 2234.68,-57.03 2152.669,209.191 	"/>
	<polygon fill="#CECECE" points="1894.107,-53.765 1995.091,250.049 2234.68,-57.03 	"/>
	<polygon fill="#BFBFBF" points="2834.645,-78.052 2696.188,242.15 2476.168,-43.49 	"/>
	<polygon fill="#A2A2A2" points="2114.396,382.21 1835.465,260.976 1951.77,202.896 	"/>
	<polyline fill="#919191" points="2834.645,-78.052 2926.335,236.42 2696.188,242.15 	"/>
	<polygon fill="#787878" points="3093.354,-105.785 2926.335,236.42 2834.645,-78.052 	"/>
	<polygon fill="#ADADAD" points="1835.465,260.976 1995.091,250.049 1894.107,-53.765 	"/>
	<polygon fill="#919191" points="1715.211,-31.495 1835.465,260.976 1894.107,-53.765 	"/>
</g>
<g opacity="0.15">
	<polygon fill="#919191" points="60.615,186.745 -34.715,154.934 -42.502,-82.637 	"/>
	<polygon fill="#787878" points="567.807,301.449 879.686,146.427 798.52,97.313 	"/>
	<polygon fill="#A2A2A2" points="265.443,233.068 60.615,186.745 217.366,37.649 	"/>
	<polygon fill="#ADADAD" points="265.443,233.068 388.52,96.862 217.366,37.649 	"/>
	<polygon fill="#A2A2A2" points="567.807,301.449 265.443,233.068 388.52,96.862 	"/>
	<polyline fill="#ADADAD" points="644.321,144.46 567.807,301.449 388.52,96.862 	"/>
	<polygon fill="#ADADAD" points="719.56,38.445 517.178,207.979 411.854,-51.648 	"/>
	<polygon fill="#BFBFBF" points="302.942,67.255 411.854,-51.648 517.178,207.979 	"/>
	<polygon fill="#CECECE" points="302.942,67.255 236.287,-91.354 411.854,-51.648 	"/>
	<polygon fill="#919191" points="567.807,301.449 782.149,124.368 636.773,132.501 	"/>
	<polygon fill="#ADADAD" points="60.615,186.745 -42.502,-82.637 217.366,37.649 	"/>
	<polygon fill="#BFBFBF" points="94.634,81.66 302.942,67.255 236.287,-91.354 	"/>
	<polygon fill="#A2A2A2" points="806.067,109.272 721.765,28.691 517.178,207.979 	"/>
	<polygon fill="#CECECE" points="-16.378,-107.486 236.287,-91.354 94.634,81.66 	"/>
	<polygon fill="#D4D4D4" points="692.159,114.269 412.785,-10.428 563.262,-222.458 	"/>
	<polygon fill="#DFDFDF" points="335.791,-304.659 563.262,-222.458 412.785,-10.428 	"/>
	<polygon fill="#D4D4D4" points="180.901,-73.123 412.785,-10.428 335.791,-304.659 	"/>
	<polygon fill="#DFDFDF" points="18.225,-79.155 335.791,-304.659 180.901,-73.123 	"/>
	<polygon fill="#CECECE" points="8.577,-399.167 18.225,-79.155 335.791,-304.659 	"/>
	<polygon fill="#BFBFBF" points="916.6,-152.801 692.159,114.269 563.262,-222.458 	"/>
	<polygon fill="#A2A2A2" points="94.634,81.66 -137.834,-114.449 -9.76,-136.748 	"/>
	<polyline fill="#919191" points="916.6,-152.801 914.289,174.757 692.159,114.269 	"/>
	<polygon fill="#787878" points="1172.4,-105.203 914.289,174.757 916.6,-152.801 	"/>
	<polygon fill="#ADADAD" points="-137.834,-114.449 18.225,-79.155 8.577,-399.167 	"/>
	<polygon fill="#919191" points="-169.195,-429.118 -137.834,-114.449 8.577,-399.167 	"/>
	<polygon fill="#919191" points="78.114,177.374 -17.217,145.562 -25.005,-92.008 	"/>
	<polygon fill="#787878" points="585.305,292.079 897.184,137.056 816.018,87.941 	"/>
	<polygon fill="#A2A2A2" points="282.941,223.696 78.114,177.374 234.864,28.278 	"/>
	<polygon fill="#ADADAD" points="282.941,223.696 406.018,87.491 234.864,28.278 	"/>
	<polygon fill="#A2A2A2" points="585.305,292.079 282.941,223.696 406.018,87.491 	"/>
	<polyline fill="#ADADAD" points="661.819,135.09 585.305,292.079 406.018,87.491 	"/>
	<polygon fill="#ADADAD" points="737.058,29.075 534.677,198.607 429.352,-61.02 	"/>
	<polygon fill="#BFBFBF" points="320.441,57.886 429.352,-61.02 534.677,198.607 	"/>
	<polygon fill="#CECECE" points="320.441,57.886 253.786,-100.726 429.352,-61.02 	"/>
	<polygon fill="#919191" points="585.305,292.079 799.646,114.997 654.272,123.129 	"/>
	<polygon fill="#ADADAD" points="78.114,177.374 -25.005,-92.008 234.864,28.278 	"/>
	<polygon fill="#BFBFBF" points="112.132,72.29 320.441,57.886 253.786,-100.726 	"/>
	<polygon fill="#A2A2A2" points="823.565,99.901 739.264,19.321 534.677,198.607 	"/>
	<polygon fill="#CECECE" points="1.12,-116.856 253.786,-100.726 112.132,72.29 	"/>
	<polygon fill="#D4D4D4" points="709.657,104.897 430.282,-19.8 580.759,-231.829 	"/>
	<polygon fill="#DFDFDF" points="353.289,-314.031 580.759,-231.829 430.282,-19.8 	"/>
	<polygon fill="#D4D4D4" points="198.399,-82.494 430.282,-19.8 353.289,-314.031 	"/>
	<polygon fill="#DFDFDF" points="35.723,-88.526 353.289,-314.031 198.399,-82.494 	"/>
	<polygon fill="#CECECE" points="26.075,-408.537 35.723,-88.526 353.289,-314.031 	"/>
	<polygon fill="#BFBFBF" points="934.098,-162.172 709.657,104.897 580.759,-231.829 	"/>
	<polygon fill="#A2A2A2" points="112.132,72.29 -120.336,-123.819 7.737,-146.119 	"/>
	<polyline fill="#919191" points="934.098,-162.172 931.786,165.386 709.657,104.897 	"/>
	<polygon fill="#787878" points="1189.899,-114.574 931.786,165.386 934.098,-162.172 	"/>
	<polygon fill="#ADADAD" points="-120.336,-123.819 35.723,-88.526 26.075,-408.537 	"/>
	<polygon fill="#919191" points="-151.696,-438.489 -120.336,-123.819 26.075,-408.537 	"/>
</g>
<g id="XMLID_1_">
	<g>
		<polygon fill="#EAEAEA" points="889.5,169.25 873.5,181.25 814.5,178.25 806.5,193.25 799.5,191.25 667.5,418.25 611.5,278.25 
			849.5,156.25 		"/>
	</g>
	<g>
	</g>
</g>
</svg>
